<svg xmlns="http://www.w3.org/2000/svg"  viewBox="0 0 24 24" width="40px" height="40px"><path d="M 9.5 1 A 1.250125 1.250125 0 0 0 8.2597656 2.0957031 L 7.8964844 5 L 3.9453125 5 A 1.250125 1.250125 0 0 0 3.5429688 5 L 2.25 5 A 1.250125 1.250125 0 1 0 2.25 7.5 L 2.5761719 7.5 L 3.3046875 18.941406 C 3.4062876 20.646031 4.8406308 22 6.5488281 22 L 17.449219 22 C 19.157416 22 20.595237 20.647535 20.695312 18.941406 L 21.423828 7.5 L 21.75 7.5 A 1.250125 1.250125 0 1 0 21.75 5 L 20.455078 5 A 1.250125 1.250125 0 0 0 20.042969 5 L 16.103516 5 L 15.740234 2.0957031 A 1.250125 1.250125 0 0 0 14.5 1 L 9.5 1 z M 10.603516 3.5 L 13.396484 3.5 L 13.583984 5 L 10.416016 5 L 10.603516 3.5 z M 5.0820312 7.5 L 8 7.5 L 9 7.5 L 15 7.5 L 16 7.5 L 18.917969 7.5 L 18.199219 18.789062 A 1.250125 1.250125 0 0 0 18.199219 18.794922 C 18.175294 19.202753 17.859021 19.5 17.449219 19.5 L 6.5488281 19.5 C 6.1390255 19.5 5.823228 19.202344 5.7988281 18.792969 A 1.250125 1.250125 0 0 0 5.7988281 18.789062 L 5.0820312 7.5 z M 9.265625 8.9824219 A 1.250125 1.250125 0 0 0 8.0039062 10.339844 L 8.4726562 16.839844 A 1.250125 1.250125 0 1 0 10.964844 16.660156 L 10.496094 10.160156 A 1.250125 1.250125 0 0 0 9.265625 8.9824219 z M 14.697266 8.984375 A 1.250125 1.250125 0 0 0 13.503906 10.160156 L 13.035156 16.660156 A 1.250125 1.250125 0 1 0 15.527344 16.839844 L 15.996094 10.339844 A 1.250125 1.250125 0 0 0 14.697266 8.984375 z"/></svg>